<?xml version="1.0" encoding="UTF-8" standalone="no"?><svg xmlns="http://www.w3.org/2000/svg" xmlns:xlink="http://www.w3.org/1999/xlink" fill="#1a0447" height="5.5" preserveAspectRatio="xMidYMid meet" version="1" viewBox="0.0 0.0 88.5 5.5" width="88.5" zoomAndPan="magnify"><g><g id="change1_3"><path d="M66,5.4H22.5l-2.3-2.3H2.7L0.1,0.4C0,0.3,0,0.2,0.1,0.1s0.3-0.1,0.4,0l2.5,2.5h17.4l2.3,2.3h43.1l2.3-2.3h17.4L88,0.1 c0.1-0.1,0.3-0.1,0.4,0s0.1,0.3,0,0.4l-2.6,2.6H68.3L66,5.4z"/></g><g id="change1_1"><path d="M19.6,5.4h-13c-0.1,0-0.3-0.1-0.3-0.3s0.1-0.3,0.3-0.3h13c0.1,0,0.3,0.1,0.3,0.3S19.8,5.4,19.6,5.4z"/></g><g id="change1_4"><path d="M82.3,5.4h-13c-0.1,0-0.3-0.1-0.3-0.3s0.1-0.3,0.3-0.3h13c0.1,0,0.3,0.1,0.3,0.3S82.4,5.4,82.3,5.4z"/></g><g id="change1_2"><path d="M60.4,5.5H28c-0.2,0-0.4-0.2-0.4-0.4s0.2-0.4,0.4-0.4h32.4c0.2,0,0.4,0.2,0.4,0.4S60.6,5.5,60.4,5.5z"/></g></g></svg>