<svg version="1.2" xmlns="http://www.w3.org/2000/svg" viewBox="0 0 1697 1139" width="100" height="67">
	<title>logo-ai</title>
	<style>
		.s0 { fill: #835c9f } 
		.s1 { fill: #0e0705 } 
		.s2 { fill: #40c3c6 } 
		.s3 { fill: #f7dd25 } 
		.s4 { fill: #fefefe } 
		.s5 { fill: #ed265b } 
	</style>
	<g id="Capa 3">
		<path id="&lt;Path&gt;" class="s0" d="m1627.8 22.3c79 33 59.3 169.9 59.3 256.8 0 115.8 7 749.9-3.3 776.9-11.5 29.9-36.4 25.9-61.1 34.4-46.4 15.8-1566.1 93.3-1574.9-18-26.4-332.4-40.5-768.7-39.9-963.3 0.4-103.2 220.9-86.8 326.7-86 361 2.5 721.7-13.9 1082.6-13.9 53.3 0 161.6-7.3 210.6 13.1z"/>
		<path id="&lt;Path&gt;" class="s1" d="m1417.2 16.7c-334.8 0-669.6 14.1-1005 14.1q-38.8 0-77.7-0.2c-27-0.2-61.2-1.4-97.2-1.4-34.7 0-71.1 1.1-104.1 5.3-33 4.1-62.7 11.4-83.6 23-14 7.8-23.9 17.3-29.3 28.9-3.1 6.6-4.9 14.1-4.9 22.7q0 6.2 0 12.6c0 200.1 14.1 625 39.8 950.1 0.1 1.1 0.5 2.3 1.8 3.9 1.4 1.7 3.7 3.7 7 5.7 6.7 4.1 17.3 8.2 31.1 11.9 27.6 7.4 67.9 13.4 117.5 17.9 99.1 9.2 235.3 12.7 384.1 12.7 375.5 0 831.5-22.6 978.2-35.3 20.9-1.8 35.7-3.4 42.4-4.6 1.6-0.3 2.8-0.7 3-0.7 7.5-2.6 14.8-4 21.4-5.4 6.6-1.5 12.5-2.9 17.4-5.1 3.3-1.4 6.2-3.2 8.7-5.5 3.4-3.1 6.5-7.4 9-14l1 0.4-1-0.3v-0.1l1 0.4-1-0.3v-0.1l0.1-0.4q0.1-0.5 0.3-1.5c0.2-1.3 0.4-3.1 0.6-5.4 0.5-4.4 0.9-10.5 1.2-18 0.8-15 1.3-35.6 1.8-60.3 0.8-49.4 1.1-115.4 1.1-187.3 0-195.6-2.3-434.5-2.3-501.3 0-29.3 2.2-63.8 2.2-97.9 0-25.5-1.2-50.8-5.4-73.3-4.2-22.5-11.4-42.1-22.6-56.5-7.6-9.7-16.9-17.2-28.8-22.1-13.2-5.5-32-9.1-53.2-11.2-21.2-2.1-44.8-2.7-67.8-2.7-32.8 0-64.4 1.3-86.8 1.3v-7.5-7.5c21.9 0 53.6-1.3 86.8-1.3 23.3 0 47.3 0.7 69.3 2.8 22 2.2 41.9 5.8 57.4 12.2 14.4 6 25.9 15.3 34.9 26.8 8.9 11.4 15.3 25 19.9 39.8 9.1 29.7 11.2 64.5 11.3 99.2 0 34.7-2.2 69.3-2.2 97.9 0 66.6 2.3 305.6 2.3 501.3 0 59-0.2 114-0.8 159.3-0.5 45.3-1.4 80.6-2.8 100.6-0.4 5.7-0.8 10.1-1.3 13.5-0.3 1.8-0.6 3.2-1.2 4.8-3.2 8.4-7.6 14.9-12.9 19.7-5.2 4.8-11.2 7.9-17.2 10-12 4.2-24.3 5.2-35.6 9.1-1.5 0.6-3.1 0.9-5.2 1.3q-3.1 0.5-7.4 1.1c-5.9 0.8-13.5 1.6-23 2.5-18.8 1.8-44.5 3.8-76 5.9-62.9 4.3-148.7 9.2-247.6 13.7-197.7 9.1-447.3 17-669.2 17-183.4 0-347.7-5.4-448.6-20-33.7-5-60.2-10.8-78.7-18.3-10.6-4.3-18.6-8.9-24-15.4-2.8-3.5-4.8-7.6-5.1-12.2-25.8-325.7-39.9-750.6-39.9-951.3q0-6.5 0-12.7c0.1-10.6 2.2-20.3 6.3-29 4.1-8.6 10-16.2 17.2-22.6 14.6-13 34.3-21.8 56.9-28.1 45.4-12.5 103.1-15.1 156.5-15.1 36.3 0 70.6 1.2 97.3 1.4q38.8 0.3 77.6 0.3c334.9 0 669.8-14.2 1005-14.2v7.5z"/>
		<path id="&lt;Path&gt;" class="s2" d="m1597.1 754.4c0.4 80.2-66.5 83.5-148.9 83.8l-1172.9 5.1c-82.4 0.3-149.3-2.4-149.6-82.6l-1.1-262.4c-0.4-80.2 66.4-86.7 148.9-87l1172.8-5.1c82.5-0.3 149.4 5.6 149.7 85.8z"/>
		<path id="&lt;Path&gt;" class="s1" d="m1604.6 754.3v0.1 0.6c0 17.6-3.1 32.3-9.2 44.2-6.1 12-15.2 21.2-26.2 27.7-7.3 4.4-15.5 7.7-24.2 10.2-11.7 3.4-24.5 5.4-38.2 6.6-18.2 1.7-38 1.9-58.6 2l-1172.8 5q-4.8 0.1-9.5 0.1c-22 0-43-0.5-61.9-2.9-19-2.4-36-6.8-50.2-15.2-9.4-5.6-17.4-13-23.4-22.6-8-12.8-12.1-29.1-12.2-49.4l-1.1-262.3v-0.7c0-20.9 4.4-37.8 12.8-51.1 8.5-13.2 20.8-22.5 35.3-28.7 29-12.4 66.9-13.9 108.3-14.1l1172.8-5q3.1-0.1 6.1-0.1c22.6 0 44 0.6 63.4 3.3 19.4 2.7 36.9 7.5 51.3 16.3 9.6 5.8 17.8 13.5 23.9 23.4 8.1 13.1 12.4 29.7 12.5 50.3l1.1 262.3-7.5 0.1h-7.5l-1.1-262.4c-0.1-20.9-4.9-35.5-12.8-46.2-7.9-10.6-19.3-17.9-34.3-22.8-9.9-3.3-21.3-5.5-33.8-6.9-16.7-1.9-35.4-2.4-55.2-2.4q-3 0-6 0l-1172.9 5.1c-23 0-44.6 0.6-63.6 3.1-19 2.5-35.2 6.9-47.6 14.2-8.2 4.8-14.8 10.8-19.7 18.6-6.6 10.4-10.6 24.1-10.6 43v0.6l1.2 262.4c0.1 20.6 4.7 34.8 12.4 45 7.6 10.3 18.7 17.1 33.2 21.7 9.7 3.1 20.8 5.1 33.1 6.4 16.3 1.6 34.6 2 54 2q4.7 0 9.4 0l1172.8-5.1c23.1-0.1 44.8-0.4 63.8-2.5 19-2.2 35.3-6.1 47.6-13 8.2-4.5 14.7-10.3 19.7-17.8 6.5-10 10.4-23.5 10.4-42.4v-0.6h7.5z"/>
		<path id="&lt;Path&gt;" class="s0" d="m1389 655.4c0 32.7-26.5 59.2-59.2 59.2h-883.9c-32.7 0-59.2-26.5-59.2-59.2v-80c0-32.7 26.5-59.2 59.2-59.2h883.9c32.7 0 59.2 26.5 59.2 59.2z"/>
		<path id="&lt;Path&gt;" class="s1" d="m1396.4 655.4c0 36.8-29.8 66.7-66.6 66.7h-883.9c-36.8 0-66.6-29.9-66.6-66.7v-80c0-36.8 29.8-66.7 66.6-66.7h883.9c36.8 0 66.6 29.9 66.6 66.7v80h-7.4-7.5v-80c0-14.3-5.8-27.2-15.2-36.6-9.3-9.3-22.2-15.1-36.5-15.1h-883.9c-14.3 0-27.2 5.8-36.5 15.1-9.4 9.4-15.2 22.3-15.2 36.6v80c0 14.3 5.8 27.2 15.2 36.6 9.3 9.3 22.2 15.1 36.5 15.1h883.9c14.3 0 27.2-5.8 36.5-15.1 9.4-9.4 15.2-22.3 15.2-36.6h7.5z"/>
		<path id="&lt;Path&gt;" class="s3" d="m1601.5 270.9c0 59.1-47.9 107-107 107h-1283.8c-59.1 0-107-47.9-107-107 0-59.1 47.9-107 107-107h1283.8c59.1 0 107 47.9 107 107z"/>
		<path id="&lt;Path&gt;" class="s1" d="m1609 270.9c0 63.2-51.3 114.4-114.5 114.4h-1283.8c-63.2 0-114.5-51.2-114.5-114.4 0-63.2 51.3-114.5 114.5-114.5h1283.8c63.2 0 114.5 51.3 114.5 114.5h-7.5-7.5c0-27.5-11.1-52.4-29.1-70.4-18.1-18-42.9-29.1-70.4-29.1h-1283.8c-27.5 0-52.3 11.1-70.4 29.1-18 18-29.1 42.9-29.1 70.4 0 27.5 11.1 52.3 29.1 70.3 18.1 18.1 42.9 29.2 70.4 29.2h1283.8c27.5 0 52.3-11.1 70.4-29.2 18-18 29.1-42.8 29.1-70.3h7.5z"/>
		<path id="&lt;Path&gt;" class="s1" d="m823.6 601.7c0 153.6-124.5 278.2-278.1 278.2-153.7 0-278.2-124.6-278.2-278.2 0-153.6 124.5-278.1 278.2-278.1 153.6 0 278.1 124.5 278.1 278.1z"/>
		<path id="&lt;Path&gt;" class="s4" d="m677.1 601.7c0 72.7-58.9 131.7-131.6 131.7-72.8 0-131.7-59-131.7-131.7 0-72.7 58.9-131.7 131.7-131.7 72.7 0 131.6 59 131.6 131.7z"/>
		<path id="&lt;Path&gt;" class="s1" d="m677.1 601.7h-7.4c0 34.3-13.9 65.3-36.4 87.8-22.5 22.5-53.5 36.4-87.8 36.4-34.4 0-65.4-13.9-87.8-36.4-22.5-22.5-36.4-53.5-36.4-87.8 0-34.3 13.9-65.3 36.4-87.8 22.4-22.5 53.4-36.4 87.8-36.4 34.3 0 65.3 13.9 87.8 36.4 22.5 22.5 36.4 53.5 36.4 87.8h7.4 7.5c0-76.9-62.3-139.1-139.1-139.1-76.9 0-139.2 62.2-139.2 139.1 0 76.9 62.3 139.2 139.2 139.2 76.8 0 139.1-62.3 139.1-139.2z"/>
		<path id="&lt;Path&gt;" class="s1" d="m626.3 601.7c0 44.7-36.2 80.9-80.8 80.9-44.7 0-80.9-36.2-80.9-80.9 0-44.7 36.2-80.9 80.9-80.9 44.6 0 80.8 36.2 80.8 80.9h-7.4-7.5c0-18.2-7.4-34.6-19.3-46.6-12-11.9-28.4-19.3-46.6-19.3-18.3 0-34.7 7.4-46.7 19.3-11.9 12-19.3 28.4-19.3 46.6 0 18.2 7.4 34.7 19.3 46.6 12 12 28.4 19.3 46.7 19.3 18.2 0 34.6-7.3 46.6-19.3 11.9-11.9 19.3-28.4 19.3-46.6h7.5z"/>
		<path id="&lt;Path&gt;" class="s1" d="m1432.4 601.7c0 115.3-93.5 208.9-208.8 208.9-115.4 0-208.9-93.6-208.9-208.9 0-115.3 93.5-208.8 208.9-208.8 115.3 0 208.8 93.5 208.8 208.8z"/>
		<path id="&lt;Path&gt;" class="s4" d="m1322.4 601.7c0 54.6-44.2 98.9-98.8 98.9-54.6 0-98.9-44.3-98.9-98.9 0-54.6 44.3-98.8 98.9-98.8 54.6 0 98.8 44.2 98.8 98.8z"/>
		<path id="&lt;Path&gt;" class="s1" d="m1322.4 601.7h-7.4c0 25.3-10.3 48.1-26.8 64.6-16.6 16.6-39.4 26.8-64.6 26.8-25.3 0-48.1-10.2-64.6-26.8-16.6-16.5-26.8-39.3-26.8-64.6 0-25.2 10.2-48 26.8-64.6 16.5-16.5 39.3-26.7 64.6-26.8 25.2 0 48 10.3 64.6 26.8 16.5 16.6 26.8 39.4 26.8 64.6h7.4 7.5c0-58.7-47.6-106.3-106.3-106.3-58.7 0-106.4 47.6-106.4 106.3 0 58.8 47.7 106.4 106.4 106.4 58.7 0 106.3-47.6 106.3-106.4z"/>
		<path id="&lt;Path&gt;" class="s1" d="m1286.2 601.7c0 34.6-28.1 62.6-62.6 62.6-34.6 0-62.6-28-62.6-62.6 0-34.6 28-62.6 62.6-62.6 34.6 0 62.6 28 62.6 62.6h-7.5-7.5c0-13.2-5.3-25-13.9-33.7-8.7-8.6-20.6-13.9-33.7-13.9-13.2 0-25.1 5.3-33.7 13.9-8.6 8.7-14 20.5-14 33.7 0 13.2 5.4 25 14 33.7 8.6 8.6 20.5 13.9 33.7 14 13.1-0.1 25-5.4 33.7-14 8.6-8.7 13.9-20.5 13.9-33.7h7.5z"/>
		<path id="&lt;Path&gt;" class="s5" d="m398.8 1128.8c-2.6-62.1 31.5-203.8 389.6-224.2 410.1-23.5 525.6 44.4 562.3 205.7-263.8 13.6-664.5 26.8-951.9 18.5z"/>
		<path id="&lt;Path&gt;" class="s1" d="m1350.3 1102.8l0.4 7.5-7.3 1.7c-5.9-25.9-13.8-49.2-24.6-69.9-10.8-20.6-24.4-38.8-41.9-54.6-35-31.5-85.9-54.1-160.9-67-50-8.6-110.6-13-184-13-43.2 0-90.7 1.5-143.2 4.5-129.3 7.4-215.7 30.7-272.7 59.9-57.1 29.2-85 63.9-98.4 95.2-9 20.8-11.6 40.3-11.6 55.7q0 3 0.2 5.7l-7.5 0.3 0.2-7.4c61.6 1.7 128.4 2.5 198 2.5 254.6 0 546.2-10.4 753.3-21.1l0.4 7.5 7.3-1.7c0.5 2.2 0 4.4-1.3 6.2-1.4 1.8-3.4 2.9-5.6 3-207.3 10.6-499.1 21.1-754.1 21.1-69.7 0-136.7-0.8-198.4-2.6-4-0.1-7.1-3.2-7.3-7.1q-0.1-3.1-0.1-6.4c0-17 2.8-38.6 12.7-61.6 9.9-23.1 26.9-47.5 54.8-70.2 55.9-45.4 155-83.9 329.3-93.9 52.6-3 100.5-4.5 144-4.5 83.2 0 150.5 5.5 205.2 16.7 54.7 11.2 96.9 28 129.4 51 21.7 15.2 39 33.2 52.8 53.6 18.4 27.3 30.4 59 38.6 94.7l-7.3 1.7z"/>
		<path id="&lt;Path&gt;" class="s1" d="m139.9 135.9c0 20.9-16.9 37.9-37.8 37.9-20.9 0-37.9-17-37.9-37.9 0-20.9 17-37.8 37.9-37.8 20.9 0 37.8 16.9 37.8 37.8z"/>
		<path id="&lt;Path&gt;" class="s1" d="m158 1016.5c0 20.9-16.9 37.8-37.8 37.8-20.9 0-37.9-16.9-37.9-37.8 0-20.9 17-37.9 37.9-37.9 20.9 0 37.8 17 37.8 37.9z"/>
		<path id="&lt;Path&gt;" class="s1" d="m1632.8 993.4c0 20.9-17 37.9-37.9 37.9-20.9 0-37.8-17-37.8-37.9 0-20.9 16.9-37.8 37.8-37.8 20.9 0 37.9 16.9 37.9 37.8z"/>
		<path id="&lt;Path&gt;" class="s1" d="m1652.5 114.5c0 20.9-16.9 37.9-37.8 37.9-20.9 0-37.9-17-37.9-37.9 0-20.9 17-37.8 37.9-37.8 20.9 0 37.8 16.9 37.8 37.8z"/>
		<path id="&lt;Path&gt;" class="s1" d="m10.5 94.4l359.6-28.3-358.7 38.3c-2.7 0.3-5.2-1.7-5.5-4.5-0.3-2.7 1.7-5.2 4.4-5.5z"/>
		<path id="&lt;Path&gt;" class="s1" d="m10 146l297.4-28.3-296.3 38.2c-2.8 0.4-5.3-1.6-5.6-4.3-0.4-2.7 1.6-5.2 4.3-5.6z"/>
		<path id="&lt;Path&gt;" class="s1" d="m8.7 205.9l102-6.7-100.9 16.6c-2.7 0.4-5.3-1.4-5.7-4.1-0.4-2.8 1.4-5.3 4.1-5.8z"/>
		<path id="&lt;Path&gt;" class="s1" d="m10.3 257.4l73.8-5-72.5 14.9c-2.7 0.6-5.3-1.2-5.9-3.9-0.5-2.7 1.2-5.3 3.9-5.9z"/>
		<path id="&lt;Path&gt;" class="s1" d="m5.2 312.3l80.6-6.7-79.1 16.6c-2.7 0.6-5.4-1.2-5.9-3.9-0.6-2.7 1.1-5.3 3.8-5.9z"/>
		<path id="&lt;Path&gt;" class="s1" d="m8.7 375.5l123.6-8.4-122.5 18.3c-2.7 0.4-5.3-1.5-5.7-4.2-0.4-2.7 1.5-5.3 4.2-5.7z"/>
		<path id="&lt;Path&gt;" class="s1" d="m8.7 423.7l171.9-15-170.7 24.9c-2.8 0.4-5.3-1.5-5.7-4.2-0.4-2.7 1.5-5.3 4.2-5.6z"/>
		<path id="&lt;Path&gt;" class="s1" d="m17.1 485.2l88.6-3.3-87.6 13.3c-2.8 0.4-5.3-1.5-5.7-4.2-0.4-2.7 1.4-5.3 4.2-5.7z"/>
		<path id="&lt;Path&gt;" class="s1" d="m13.9 540.1l88.5-1.7-87.8 11.7c-2.7 0.3-5.2-1.6-5.6-4.3-0.3-2.8 1.6-5.3 4.3-5.7z"/>
		<path id="&lt;Path&gt;" class="s1" d="m19.1 595l85 1.6-84.6 8.3c-2.8 0.3-5.2-1.7-5.5-4.4-0.3-2.8 1.7-5.2 4.5-5.5z"/>
		<path id="&lt;Path&gt;" class="s1" d="m20.5 648.2l95.2-3.3-94.3 13.2c-2.8 0.4-5.3-1.5-5.7-4.2-0.4-2.7 1.5-5.3 4.3-5.6z"/>
		<path id="&lt;Path&gt;" class="s1" d="m22.5 698.1l74.9 3.3-74.7 6.7c-2.8 0.2-5.2-1.8-5.4-4.6-0.3-2.7 1.8-5.2 4.5-5.4z"/>
		<path id="&lt;Path&gt;" class="s1" d="m25.7 753l83.4 1.6-83 8.3c-2.7 0.3-5.2-1.7-5.5-4.5-0.2-2.7 1.8-5.1 4.5-5.4z"/>
		<path id="&lt;Path&gt;" class="s1" d="m28.9 809.5h78.5l-77.8 10c-2.8 0.3-5.3-1.6-5.6-4.4-0.4-2.7 1.5-5.2 4.3-5.6z"/>
		<path id="&lt;Path&gt;" class="s1" d="m30.8 859.4l281.1 1.7-280.9 8.3c-2.8 0-5.1-2.1-5.2-4.9-0.1-2.7 2.1-5 4.9-5.1z"/>
		<path id="&lt;Path&gt;" class="s1" d="m35.7 912.6l243-5-242.6 15c-2.8 0.1-5.1-1.9-5.3-4.7-0.2-2.7 1.9-5.1 4.7-5.3z"/>
		<path id="&lt;Path&gt;" class="s1" d="m40.7 957.5h114.9l-114.5 10c-2.8 0.2-5.2-1.8-5.4-4.6-0.3-2.7 1.8-5.1 4.5-5.4z"/>
		<path id="&lt;Path&gt;" class="s1" d="m47.3 1014l279.6-6.6-279.2 16.6c-2.7 0.2-5.1-1.9-5.2-4.7-0.2-2.7 1.9-5.1 4.6-5.2z"/>
		<path id="&lt;Path&gt;" class="s1" d="m42.9 1049l284 26.6-284.7-16.7c-2.8-0.1-4.9-2.5-4.7-5.2 0.1-2.8 2.5-4.9 5.2-4.7z"/>
		<path id="&lt;Path&gt;" class="s1" d="m1661.5 346.3v541.4l-10-541.3c-0.1-2.8 2.1-5 4.9-5.1 2.7 0 5 2.2 5.1 4.9z"/>
		<path id="&lt;Path&gt;" class="s1" d="m1000.4 927.6c0 0 5.9 0 15.9 0.6 10.1 0.5 24.4 1.7 41.5 3.9 8.5 1.1 17.7 2.5 27.5 4.3 9.7 1.7 19.9 3.7 30.3 6.3 10.5 2.4 21.2 5.4 32 8.7 10.8 3.4 21.7 7.1 32.3 11.5 10.7 4.2 21.1 9.1 31.1 14.3 5 2.6 9.8 5.5 14.7 8.2 4.6 3 9.3 5.8 13.7 8.9 8.8 6.1 17.1 12.5 24.3 19.2 7.4 6.6 13.7 13.4 19.3 19.9q4 5.1 7.7 9.7 3.2 4.8 6.1 9.2c3.9 5.8 6.5 11.3 9 15.6 4.1 9.1 6.4 14.3 6.4 14.3 0 0-2.4-5.1-6.8-14.1-2.6-4.2-5.3-9.6-9.3-15.3q-3.1-4.2-6.4-9-3.8-4.5-7.9-9.4c-5.7-6.3-12.2-12.9-19.6-19.2-7.4-6.4-15.7-12.4-24.5-18.3-4.5-2.9-9.2-5.6-13.9-8.4-4.8-2.5-9.6-5.3-14.6-7.7-10.1-4.8-20.4-9.4-31.1-13.3-10.6-4-21.4-7.3-32.1-10.5-10.8-2.9-21.4-5.6-31.9-7.7-10.3-2.2-20.5-3.9-30.1-5.4-9.6-1.4-18.8-2.6-27.2-3.4-16.9-1.7-31-2.5-40.9-2.8-9.9-0.3-15.4-0.2-15.4-0.2-2.8 0.1-5.1-2.1-5.2-4.8 0-2.8 2.2-5.1 4.9-5.1h0.1z"/>
		<path id="&lt;Path&gt;" class="s1" d="m439.2 1097.2c0 0 35.4 0.2 88.4 0.5 26.6 0.1 57.6 0.2 90.8 0.3 33.1 0 68.5 0 103.9 0 35.4-0.1 70.8-0.3 104-0.7 16.6-0.2 32.6-0.4 47.8-0.5 15.3-0.4 29.6-0.7 42.9-1 13.3-0.3 25.4-0.6 36.2-0.9 10.8-0.5 20.2-1 27.9-1.4 15.5-0.8 24.3-1.3 24.3-1.3 0 0-8.8 0.6-24.3 1.7-7.7 0.5-17.1 1.2-27.8 1.9-10.8 0.5-23 1-36.2 1.6-13.3 0.5-27.7 1.1-42.9 1.7-15.2 0.4-31.2 0.9-47.8 1.3-33.2 1.1-68.6 1.9-104 2.5-35.4 0.7-70.8 1.3-104 2-33.2 0.4-64.2 0.9-90.7 1.3-53.1 0.6-88.5 1-88.5 1-2.8 0-5-2.2-5.1-5 0-2.7 2.2-5 5-5z"/>
		<path id="&lt;Path&gt;" class="s1" d="m157.3 516c0 0-1.3 93.8-2.5 187.7-0.2 11.8-0.3 23.5-0.5 35q-0.1 8.7-0.2 17.1c0.1 5.5 1 11 2.6 16.1 2.9 10.3 8.5 19.5 15.4 26.5 3.3 3.8 7.4 6.4 11 9.4q3.1 1.7 6 3.4c2 1.2 3.9 2.3 6 3.1q3 1.2 5.9 2.4c1.9 0.8 3.8 1.6 5.8 2q5.7 1.6 10.9 3c7 1 13.2 2.3 18.3 2.7 10.2 0.6 16.1 0.9 16.1 0.9 0 0-5.9-0.2-16.2-0.5-5.1-0.2-11.3-1.3-18.4-2.2q-5.2-1.3-11.1-2.7c-2-0.4-3.9-1.1-5.9-1.9q-3-1.1-6.1-2.3c-2.1-0.7-4.1-1.8-6.1-2.9q-3.1-1.7-6.2-3.4c-3.8-3-8.2-5.5-11.6-9.4-7.4-7-13.4-16.4-16.9-27.2-1.7-5.3-2.8-11-3.1-16.8q-0.1-8.6-0.2-17.3c-0.2-11.5-0.3-23.2-0.5-35-1.2-93.9-2.5-187.7-2.5-187.7 0-2.8 2.2-5 4.9-5.1 2.8 0 5 2.2 5.1 4.9z"/>
		<path id="&lt;Path&gt;" class="s1" d="m496.6 194.2l962.8 10h-962.9c-2.7 0-5-2.3-5-5 0-2.8 2.3-5 5-5z"/>
		<path id="&lt;Path&gt;" class="s1" d="m163.3 220.2c-2 1.9-4.1 4.3-5.9 6.6q-2.9 3.5-5.3 7.3c-3.3 5.1-6.2 10.5-8.3 16.1-2.2 5.6-3.6 11.4-4.3 17.3l-0.4 4.5v4.5c0.1 2.9 0.4 5.9 0.9 8.9 0.2 1.4 0.6 2.9 0.9 4.3q0.5 2.2 1.2 4.4c0.9 2.9 2.1 5.6 3.3 8.4 1.4 2.7 2.6 5.5 4.3 8l2.5 3.9 2.7 3.7c1.7 2.5 3.9 4.8 5.9 7.2 2 2.3 4.3 4.4 6.4 6.7l6.9 6.2 7.3 5.9-1.5-0.5 191.9 12.7-192.2-7.2c-0.6 0-1.1-0.2-1.5-0.5l-7.7-5.9-7.4-6.3c-2.3-2.3-4.7-4.5-6.9-6.8-2.2-2.5-4.5-4.8-6.5-7.4l-3-3.9-2.7-4.1c-1.9-2.7-3.4-5.7-5-8.5-1.4-3.1-2.8-6.1-3.9-9.3q-0.9-2.3-1.5-4.7c-0.4-1.7-0.9-3.3-1.1-4.9-0.7-3.3-1.1-6.6-1.4-10l-0.1-5 0.3-5.1c0.6-6.7 2.1-13.3 4.3-19.6 2.2-6.3 5.1-12.3 8.6-18q2.6-4.3 5.6-8.2c2-2.7 4.1-5.3 6.6-7.8 1.9-2 5.1-2 7-0.1 2 1.9 2.1 5.1 0.1 7l-0.1 0.1z"/>
		<path id="&lt;Path&gt;" class="s1" d="m968 336.4l531.3 9c5.1-0.5 10.3-1.4 15.3-2.7 2.6-0.6 5-1.5 7.5-2.2 2.5-0.8 4.9-1.9 7.3-2.8 2.5-1 4.8-2.3 7.1-3.4 2.4-1.1 4.5-2.6 6.8-3.9 2.3-1.3 4.2-3 6.3-4.6 1.1-0.8 2.2-1.5 3.1-2.4l2.8-2.7c1.9-1.9 3.9-3.6 5.4-5.8 1.6-2 3.3-4 4.8-6.2l3.9-6.8c1.5-2.2 2.1-4.8 3.2-7.1 0.9-2.5 2.1-4.9 2.6-7.5l1.9-7.6c0.7-2.5 0.7-5.2 1-7.8l0.8-7.9-0.6 7.9c-0.4 2.6-0.3 5.3-1 7.8l-1.8 7.7c-0.4 2.7-1.6 5-2.5 7.5-1 2.4-1.6 5.1-3.1 7.3l-3.8 6.9c-1.5 2.2-3.2 4.3-4.8 6.4-1.5 2.2-3.4 4-5.3 5.9l-2.8 2.8c-1 0.9-2 1.6-3.1 2.5-2.1 1.6-4 3.4-6.4 4.7-2.2 1.3-4.4 2.9-6.8 4.1-2.3 1.2-4.6 2.5-7.1 3.5-2.4 1-4.8 2.1-7.4 2.9-2.5 0.9-5 1.8-7.6 2.4-5.1 1.4-10.3 2.5-15.6 3h-0.1l-531.4-0.9c-2.7-0.1-4.9-2.3-4.9-5 0-2.8 2.2-5 5-5z"/>
		<path id="&lt;Path&gt;" class="s1" d="m776 807.8l349.1 7.5-349.2 2.5c-2.8 0-5-2.2-5-4.9-0.1-2.8 2.2-5 4.9-5.1z"/>
		<path id="&lt;Path&gt;" class="s1" d="m1359.5 802.8c0 0 59.2 0.3 118.3 0.5 7.4 0 14.8 0 22.1 0 6.8-0.1 14-1.6 20.5-3.4 6.5-1.9 12.7-4.3 18.3-7.2 5.4-3 10.4-6.3 14.3-10.2q1.5-1.4 2.9-2.8 1.2-1.5 2.4-2.9 1.2-1.5 2.3-2.9 0.8-1.5 1.7-3c2.4-3.8 3.5-7.5 4.7-10.5 1-3.1 1.2-5.7 1.6-7.3 0.4-1.7 0.6-2.6 0.6-2.6 0 0-0.2 0.9-0.4 2.6-0.4 1.7-0.5 4.3-1.4 7.4-1 3-2 6.9-4.3 10.9-0.5 1-1.1 2-1.7 3.1q-1 1.4-2.1 3-1.2 1.5-2.4 3.2-1.4 1.4-2.8 2.9c-3.8 4.2-8.8 7.8-14.3 11.1-5.6 3.2-11.8 6-18.5 8.2-6.8 2.1-13.7 4-21.4 4.5-7.2 0.3-14.6 0.6-22 0.9-59.1 2.2-118.2 4.5-118.2 4.5-2.7 0.1-5.1-2-5.2-4.8-0.1-2.7 2.1-5 4.8-5.2z"/>
		<path id="&lt;Path&gt;" class="s4" d="m309.4 623.3c0 0-0.2 5.8 0.7 16.3 0.8 10.5 2.8 25.5 7.3 43 2.3 8.7 5.1 18.1 8.9 27.8 3.7 9.7 8.3 19.6 13.8 29.5 5.3 10 12.1 19.6 19.2 29.1 3.9 4.5 7.5 9.3 11.8 13.6l6.2 6.5 6.7 6.1c4.4 4.3 9.3 7.8 14 11.6 4.8 3.7 9.9 6.9 14.8 10.4 5.1 3 10.2 6.1 15.3 8.9 5.3 2.6 10.4 5.3 15.6 7.6q8 3.3 15.6 6.4 7.8 2.6 15.3 5.1c5 1.7 10 2.8 14.7 4.1q3.6 0.9 7.1 1.9 3.5 0.6 6.8 1.3 6.8 1.4 12.9 2.6c4.2 0.7 8.1 1.1 11.8 1.6 7.4 1.1 13.8 1.9 19.2 2.2 10.7 0.8 16.8 1.3 16.8 1.3 0 0-6.1-0.3-16.8-0.9-5.4-0.1-11.9-0.8-19.3-1.7-3.7-0.4-7.7-0.7-11.8-1.3q-6.2-1.1-13.1-2.2-3.4-0.6-6.9-1.3-3.5-0.8-7.1-1.6c-4.8-1.3-9.9-2.2-15-3.7q-7.6-2.4-15.5-4.8-7.8-3-15.9-6.1c-5.3-2.2-10.6-4.8-16-7.3-5.3-2.7-10.6-5.7-15.9-8.7-5-3.3-10.3-6.5-15.3-10.1-4.9-3.8-10-7.3-14.6-11.5l-7-6.1-6.6-6.6c-4.5-4.2-8.3-9.1-12.4-13.6-7.6-9.6-14.8-19.3-20.5-29.4-6-10-11-20.2-15-30.1-4.2-9.8-7.3-19.5-9.9-28.4-5.2-18-7.6-33.4-8.7-44.3-0.6-5.4-0.9-9.7-1-12.7q-0.1-2.3-0.1-3.5 0-1.1 0-1.1v-0.1c-0.1-2.7 2.2-5 4.9-5 2.8 0 5 2.2 5.1 4.9z"/>
		<path id="&lt;Path&gt;" class="s4" d="m1059.9 656.2c0 0 1.4 3.6 4.5 9.9 3.1 6.3 7.8 15.1 14.4 25.3 3.3 5 7.1 10.4 11.2 15.9 4.3 5.4 8.8 11.2 14 16.7 5 5.6 10.6 11.1 16.5 16.4 5.9 5.3 12.2 10.3 18.9 14.9 3.2 2.5 6.7 4.5 10.1 6.7q5.2 3.1 10.4 5.9c7.1 3.6 14.2 6.9 21.4 9.5 7.1 2.6 14.2 4.7 21 6.3 3.4 0.7 6.7 1.5 9.9 2.1q4.9 0.7 9.4 1.3c6.1 0.7 11.7 1.2 16.7 1.3 4.9 0 9.3 0.3 12.8 0 7.2-0.3 11.2-0.5 11.2-0.5 0 0-4 0.3-11.2 1-3.5 0.4-7.9 0.2-12.9 0.4-5 0.1-10.6-0.2-16.7-0.6q-4.6-0.5-9.6-1c-3.3-0.5-6.6-1.2-10.1-1.7-7-1.4-14.2-3.2-21.6-5.6-7.3-2.4-14.7-5.4-22.1-8.9q-5.5-2.7-10.9-5.6c-3.5-2.2-7.2-4.1-10.6-6.4-7-4.5-13.6-9.4-19.9-14.6-6.3-5.2-12.3-10.6-17.7-16.2-5.5-5.5-10.4-11.2-15-16.6-4.5-5.6-8.6-10.9-12.1-16-7.2-10.2-12.5-19.2-16-25.6-3.4-6.4-5.2-10.4-5.2-10.4v-0.1c-1.1-2.5 0-5.4 2.5-6.5 2.6-1.1 5.5 0 6.6 2.5z"/>
		<path id="&lt;Path&gt;" class="s1" d="m448.8 1061.8c0 0 0.5-1.1 1.9-3.6 0.7-1.2 1.5-2.6 2.6-4.2 1-1.6 2.2-3.5 3.7-5.4 1.4-1.9 3-4.1 4.8-6.4q2.9-3.2 6.2-7c2.2-2.6 4.8-4.9 7.5-7.6q2-2 4.1-4.1 2.2-1.9 4.5-3.8c3.2-2.6 6.3-5.5 9.9-8.1q5.4-3.9 11-8c3.7-2.8 8.1-5 12.2-7.6 4.2-2.4 8.3-5.4 12.9-7.5 9.1-4.4 18.3-9.5 28.3-13.1q7.4-3.1 14.8-6.1 7.7-2.5 15.4-4.9c5.1-1.6 10.2-3.5 15.4-4.8q7.8-2 15.5-3.8 7.7-1.9 15.2-3.8 7.7-1.3 15.1-2.6 7.5-1.3 14.6-2.5 3.6-0.6 7.1-1.2 3.5-0.4 6.9-0.8c9.2-0.9 17.8-1.9 25.8-2.7 8-1.1 15.4-1.2 21.9-1.5 6.5-0.3 12.2-0.6 16.8-0.8 9.4-0.4 14.7-0.7 14.7-0.7 0 0-5.3 0.4-14.6 1.1-4.7 0.4-10.4 0.8-16.9 1.3-6.4 0.5-13.8 0.8-21.7 2.1-7.9 1.1-16.5 2.3-25.6 3.5q-3.4 0.5-6.9 1-3.5 0.7-7 1.4-7.1 1.4-14.5 2.9-7.3 1.5-14.9 3.1-7.4 2-15 4.1-7.6 2.1-15.3 4.2c-5 1.5-10 3.5-15 5.2q-7.5 2.7-15 5.3-7.3 3.2-14.4 6.4c-9.7 3.9-18.6 9.1-27.4 13.7-4.4 2.2-8.3 5.2-12.4 7.6-3.9 2.7-8.1 4.9-11.6 7.8q-5.3 4.1-10.4 8c-3.4 2.6-6.3 5.5-9.3 8q-2.2 2-4.3 3.9-1.9 2-3.7 4c-2.5 2.6-5 4.9-6.9 7.4q-3 3.6-5.7 6.8c-1.6 2.2-3 4.3-4.3 6.1-2.5 3.7-4.4 6.8-5.4 8.7-1 1.9-1.6 3.2-1.6 3.2-1.1 2.6-4 3.7-6.5 2.7-2.6-1.1-3.7-4.1-2.6-6.6z"/>
		<path id="&lt;Path&gt;" class="s1" d="m486.5 1068.9l354.3 1.7-354.2 8.3c-2.7 0.1-5-2.1-5.1-4.9-0.1-2.7 2.1-5 4.9-5.1z"/>
	</g>
</svg>